HIERARCHY
ROOT SpineBase
{
  OFFSET 0.000000 0.000000 0.000000
  CHANNELS 6 Xposition Yposition Zposition Zrotation Xrotation Yrotation
  JOINT SpineMid
  {
    OFFSET 0.000000 34.969528 0.000000
    CHANNELS 3 Zrotation Xrotation Yrotation
    JOINT SpineShoulder
    {
      OFFSET -0.335556 25.943188 -1.084147
      CHANNELS 3 Zrotation Xrotation Yrotation
      JOINT Neck
      {
        OFFSET -0.240140 8.571024 -0.764380
        CHANNELS 3 Zrotation Xrotation Yrotation
        JOINT Head
        {
          OFFSET -0.809564 12.249239 2.788025
          CHANNELS 3 Zrotation Xrotation Yrotation
          End Site
          {
            OFFSET 0 0 0
          }
        }
      }
      JOINT ShoulderLeft
      {
        OFFSET -12.183554 -6.113785 -9.546212
        CHANNELS 3 Zrotation Xrotation Yrotation
        JOINT ElbowLeft
        {
          OFFSET -4.476850 -25.744953 0.811185
          CHANNELS 3 Zrotation Xrotation Yrotation
          JOINT WristLeft
          {
            OFFSET -2.168607 -26.023592 10.176361
            CHANNELS 3 Zrotation Xrotation Yrotation
            JOINT HandLeft
            {
              OFFSET 2.217981 -2.315275 -2.744944
              CHANNELS 3 Zrotation Xrotation Yrotation
              JOINT HandTipLeft
              {
                OFFSET -1.505027 -7.614801 -0.003776
                CHANNELS 3 Zrotation Xrotation Yrotation
                End Site
                {
                  OFFSET 0 0 0
                }
              }
              JOINT ThumbLeft
              {
                OFFSET -1.515129 -1.971123 -9.445394
                CHANNELS 3 Zrotation Xrotation Yrotation
                End Site
                {
                  OFFSET 0 0 0
                }
              }
            }
          }
        }
      }
      JOINT ShoulderRight
      {
        OFFSET 12.824478 -3.586105 -1.524148
        CHANNELS 3 Zrotation Xrotation Yrotation
        JOINT ElbowRight
        {
          OFFSET 3.269353 -25.827877 -2.737950
          CHANNELS 3 Zrotation Xrotation Yrotation
          JOINT WristRight
          {
            OFFSET -31.423268 -10.377123 0.547707
            CHANNELS 3 Zrotation Xrotation Yrotation
            JOINT HandRight
            {
              OFFSET -2.678397 -3.733990 0.370784
              CHANNELS 3 Zrotation Xrotation Yrotation
              JOINT HandTipRight
              {
                OFFSET -0.582722 -8.189867 5.520859
                CHANNELS 3 Zrotation Xrotation Yrotation
                End Site
                {
                  OFFSET 0 0 0
                }
              }
              JOINT ThumbRight
              {
                OFFSET 3.220511 -5.703975 -0.302890
                CHANNELS 3 Zrotation Xrotation Yrotation
                End Site
                {
                  OFFSET 0 0 0
                }
              }
            }
          }
        }
      }
    }
  }
  JOINT HipLeft
  {
    OFFSET -7.634774 2.192886 -5.467118
    CHANNELS 3 Zrotation Xrotation Yrotation
    JOINT KneeLeft
    {
      OFFSET 9.978692 -40.389438 -0.908945
      CHANNELS 3 Zrotation Xrotation Yrotation
      JOINT AnkleLeft
      {
        OFFSET -2.722008 -35.400096 -2.356838
        CHANNELS 3 Zrotation Xrotation Yrotation
        JOINT FootLeft
        {
          OFFSET 6.850137 -3.830880 -1.689047
          CHANNELS 3 Zrotation Xrotation Yrotation
          End Site
          {
            OFFSET 0 0 0
          }
        }
      }
    }
  }
  JOINT HipRight
  {
    OFFSET 5.759907 1.019625 -1.418254
    CHANNELS 3 Zrotation Xrotation Yrotation
    JOINT KneeRight
    {
      OFFSET 11.060928 -45.080992 3.599437
      CHANNELS 3 Zrotation Xrotation Yrotation
      JOINT AnkleRight
      {
        OFFSET 1.841349 -29.844020 1.873403
        CHANNELS 3 Zrotation Xrotation Yrotation
        JOINT FootRight
        {
          OFFSET 0.007920 -4.000187 -10.314770
          CHANNELS 3 Zrotation Xrotation Yrotation
          End Site
          {
            OFFSET 0 0 0
          }
        }
      }
    }
  }
}
MOTION
Frames: 10
Frame Time: 0.033333
67.017926 78.820255 231.078398 1.521308 -2.280887 -12.116430 -0.340492 0.340046 12.175890 -0.481644 0.147704 -0.000589 -4.612366 0.975934 0.908023 0.000000 0.000000 0.000000 -1.878537 -6.499383 1.338334 10.831350 -9.094716 3.701638 -66.566121 -41.733744 6.430796 83.755403 11.152796 -48.652622 0.000000 0.000000 0.000000 0.000000 0.000000 0.000000 -0.173350 2.707053 0.027243 -0.603952 -0.976769 -0.064871 11.966960 -34.931631 31.438158 -6.547351 18.803672 -24.536294 0.000000 0.000000 0.000000 0.000000 0.000000 0.000000 -7.829714 1.901683 12.815101 8.324603 -1.301430 -0.491199 -27.052054 13.786506 54.053179 0.000000 0.000000 0.000000 -3.919030 0.812101 11.891637 2.135441 0.672624 0.321699 -0.116710 -20.043418 0.441334 0.000000 0.000000 0.000000
67.048355 78.822676 231.090229 1.481673 -2.303003 -12.062619 -0.367215 0.303506 12.119046 -0.467070 0.157352 -0.003310 -4.406610 1.115410 0.888915 0.000000 0.000000 0.000000 -1.980528 -6.119676 1.278190 10.991736 -9.401124 3.808484 -67.919549 -42.644575 4.887759 83.354951 11.708124 -48.547781 0.000000 0.000000 0.000000 0.000000 0.000000 0.000000 0.032863 2.760492 0.012549 -0.750804 -0.987536 -0.051977 12.345183 -34.715669 31.483237 -7.926565 18.041910 -24.258933 0.000000 0.000000 0.000000 0.000000 0.000000 0.000000 -7.842311 1.917521 12.763395 8.375661 -1.279825 -0.491283 -25.289479 14.692427 52.824522 0.000000 0.000000 0.000000 -3.874569 0.863709 11.843368 1.380582 0.225979 0.249831 1.493250 -20.260979 -3.290534 0.000000 0.000000 0.000000
67.057861 78.799209 231.114715 1.439565 -2.385299 -12.100286 -0.384536 0.243620 12.153638 -0.435472 0.140307 -0.006268 -4.251158 1.191626 0.869794 0.000000 0.000000 0.000000 -2.095522 -5.023872 1.127252 11.195602 -10.318300 4.147587 -69.763000 -43.693151 2.459009 82.504545 14.533376 -48.339697 0.000000 0.000000 0.000000 0.000000 0.000000 0.000000 0.121274 2.883539 0.007763 -0.799463 -0.956690 -0.043103 11.990154 -34.585057 31.158860 -6.231388 18.752492 -24.292699 0.000000 0.000000 0.000000 0.000000 0.000000 0.000000 -7.831050 1.982352 12.806978 8.321208 -1.211841 -0.490993 -13.306913 18.284568 42.054030 0.000000 0.000000 0.000000 -3.898150 0.936867 11.881492 2.170963 0.660541 0.321565 1.359747 -13.869605 -4.904648 0.000000 0.000000 0.000000
66.990792 78.818980 231.158149 1.328160 -2.501440 -12.602021 -0.355348 0.161190 12.648718 -0.418749 0.105601 -0.012691 -3.966871 1.409377 0.843609 0.000000 0.000000 0.000000 -2.130868 -4.093926 1.028793 11.354871 -10.998473 4.401274 -73.653624 -46.192295 0.027307 88.646617 13.462885 -52.197975 0.000000 0.000000 0.000000 0.000000 0.000000 0.000000 0.160174 3.046184 0.015905 -0.757438 -0.884635 -0.037596 12.215978 -35.198519 31.815173 -6.295242 19.316279 -24.766908 0.000000 0.000000 0.000000 0.000000 0.000000 0.000000 -7.114421 1.770137 13.163123 7.203049 -0.293343 -0.433801 -4.294406 17.778466 32.492442 0.000000 0.000000 0.000000 -3.897647 1.153962 12.418256 2.219737 0.532491 0.296290 1.994916 -10.982554 -6.606528 0.000000 0.000000 0.000000
66.830129 78.669916 231.197232 1.166199 -2.750714 -13.455102 -0.293847 0.082680 13.492098 -0.375609 0.066622 -0.020018 -3.464340 1.434909 0.736996 0.000000 0.000000 0.000000 -1.813515 -3.524690 1.034958 10.819730 -10.892224 4.302849 -75.424944 -48.922506 4.317997 97.750242 6.931026 -57.991155 0.000000 0.000000 0.000000 0.000000 0.000000 0.000000 0.307875 3.359569 0.009311 -0.244470 -0.630148 -0.579856 9.471700 -33.956617 29.896516 -5.922599 17.455908 -23.899174 0.000000 0.000000 0.000000 0.000000 0.000000 0.000000 -6.847270 1.896056 14.000646 7.013261 -0.156730 -0.418507 1.530799 13.323268 20.697493 0.000000 0.000000 0.000000 -3.705677 1.445396 13.298811 2.097291 0.489190 0.277395 3.259176 -11.568101 -10.928287 0.000000 0.000000 0.000000
66.591748 78.401719 231.223470 1.011412 -3.122525 -14.369326 -0.230534 0.021013 14.395923 -0.325898 0.045151 -0.027628 -2.908338 1.266510 0.589052 0.000000 0.000000 0.000000 -2.600796 -2.659884 0.973675 12.075165 -11.679111 4.662499 -73.037093 -48.723995 12.195028 95.567915 -4.337438 -56.313183 0.000000 0.000000 0.000000 0.000000 0.000000 0.000000 0.447920 3.753872 -0.000966 -0.915592 -0.753936 -0.004406 9.967432 -31.557164 27.469491 -8.192353 16.468224 -22.448437 0.000000 0.000000 0.000000 0.000000 0.000000 0.000000 -7.711695 2.577918 15.177698 8.880372 -1.632512 -0.496974 -2.985401 10.795092 18.110646 0.000000 0.000000 0.000000 -3.364460 1.784933 14.222228 2.646253 0.705598 0.324538 4.198089 -11.339853 -16.752237 0.000000 0.000000 0.000000
66.301093 78.019537 231.243604 0.853421 -3.609850 -15.493297 -0.168021 -0.003053 15.507683 -0.289599 0.035075 -0.036960 -2.268171 1.122215 0.418994 0.000000 0.000000 0.000000 -3.125606 -2.816776 1.104971 12.929038 -11.347412 4.574097 -69.658815 -48.546682 24.280551 98.320304 -19.854835 -55.505765 0.000000 0.000000 0.000000 0.000000 0.000000 0.000000 0.572587 4.218161 -0.006988 -0.974838 -0.685317 0.010781 12.964736 -28.385281 26.411955 -13.426856 14.893486 -20.365081 0.000000 0.000000 0.000000 0.000000 0.000000 0.000000 -7.962109 3.212957 16.464748 9.660610 -2.519145 -0.508429 -9.537180 10.584153 21.801458 0.000000 0.000000 0.000000 -2.957484 2.133389 15.324504 2.643668 1.362582 0.382222 4.420033 -16.698330 -21.604453 0.000000 0.000000 0.000000
65.906218 77.459135 231.211545 0.643239 -4.177417 -16.312347 -0.130082 0.017280 16.308410 -0.257548 0.052184 -0.049618 -1.517972 0.760402 0.219575 0.000000 0.000000 0.000000 -3.779830 -2.654741 1.194251 13.919793 -11.246133 4.547280 -66.272922 -46.942377 33.591492 92.218157 -32.310031 -53.314573 0.000000 0.000000 0.000000 0.000000 0.000000 0.000000 0.758159 4.696989 -0.008580 -3.043634 -1.283288 1.781216 19.854766 -23.987354 23.336293 -22.946097 12.137023 -17.885325 0.000000 0.000000 0.000000 0.000000 0.000000 0.000000 -7.540561 3.921237 17.340877 9.365501 -2.858300 -0.493947 -20.683503 12.885828 38.114963 0.000000 0.000000 0.000000 -2.341205 2.748629 16.144546 1.920453 1.540651 0.362138 8.830755 -9.898543 -30.674126 0.000000 0.000000 0.000000
65.463137 76.833935 231.120991 0.423687 -4.752816 -16.707881 -0.106326 0.049393 16.682446 -0.227834 0.078345 -0.063239 -0.927356 0.188671 0.052072 0.000000 0.000000 0.000000 -4.149221 -2.858775 1.343595 15.619538 -11.358091 4.881110 -62.394929 -41.531432 42.607957 82.628783 -38.374694 -52.144445 0.000000 0.000000 0.000000 0.000000 0.000000 0.000000 0.955770 5.169867 -0.008611 -4.454885 -1.948772 3.618083 26.624223 -20.040959 19.940694 -30.441472 9.996413 -15.551014 0.000000 0.000000 0.000000 0.000000 0.000000 0.000000 -6.647706 4.692529 17.702492 8.317323 -2.857591 -0.467859 -29.417331 9.734021 44.868481 0.000000 0.000000 0.000000 -1.543571 3.226787 16.469859 1.083501 1.994104 0.388756 11.674770 -9.420497 -37.939535 0.000000 0.000000 0.000000
65.020860 76.211037 230.972346 0.221303 -5.264700 -16.920938 -0.104756 0.101613 16.874104 -0.202786 0.124121 -0.075444 -0.525506 -0.664906 -0.081551 0.000000 0.000000 0.000000 -4.512412 -3.365028 1.508771 15.850947 -10.428380 4.375809 -59.594140 -37.851823 49.369353 77.291789 -40.879833 -52.651183 0.000000 0.000000 0.000000 0.000000 0.000000 0.000000 5.675105 3.500797 -1.058865 -11.623249 0.131301 3.795617 31.330699 -15.362296 16.612643 -33.996724 4.457341 -13.629877 0.000000 0.000000 0.000000 0.000000 0.000000 0.000000 -5.273216 5.277297 17.726373 6.383756 -2.231622 -0.410777 -29.005238 12.716351 52.845295 0.000000 0.000000 0.000000 -0.519400 3.531137 16.551204 -0.763716 1.730406 0.376222 13.579210 -1.850839 -35.311802 0.000000 0.000000 0.000000
